# Blender v2.79 (sub 0) OBJ File: ''
# www.blender.org
mtllib asteroid.mtl
o Asteroid_2_Cube.005
v -0.934708 -0.856355 1.708292
v -0.582839 -1.198299 1.964204
v 0.204103 -0.572271 2.885427
v 0.167547 0.074372 2.817323
v 0.116900 1.074944 2.143951
v 0.183086 1.520859 -0.543947
v 1.201290 0.897045 0.831829
v 1.158021 1.082046 0.138462
v 0.058505 -0.128769 -2.550743
v -0.216453 -0.455470 -2.701749
v 1.356104 0.235182 -0.556887
v 0.964310 -0.343577 -1.628830
v -1.534593 -0.655046 -0.563256
v -1.080099 0.060028 1.861885
v -0.767032 0.200729 2.175469
v -0.090347 1.264858 1.748284
v -1.522278 0.497411 0.369988
v -1.403957 1.014631 -0.096367
v -1.089676 0.886046 -1.669518
v -1.312327 1.012030 -0.358023
v -1.063939 1.168222 0.067958
v -0.275733 0.279100 -2.510998
v -1.139282 -1.146136 -1.260126
v -1.477297 -0.764190 -0.920286
v -0.466904 -0.392930 -2.738444
v -1.078929 0.440847 -1.997914
v -0.574600 -0.086143 -2.663801
v -0.200809 1.418746 -0.679649
v -0.938482 0.960770 -1.696491
v -0.365572 0.734657 -2.070100
v 1.374685 -0.455601 1.477766
v 0.432246 -1.025234 -1.944588
v 0.962946 -0.484177 -1.610772
v 1.448562 -0.195147 0.038088
v 0.162302 -1.564752 -0.302548
v 0.145403 -1.452382 -1.181193
v 0.156611 -1.531195 -0.533341
v 0.150755 -1.491054 -0.827366
v -0.513063 -1.569668 0.150430
v -0.207265 -1.589432 0.105025
v -0.658850 -1.440514 -0.999931
v -0.451012 -1.624580 0.378039
v -0.829997 -1.446205 -0.860722
vt 0.291239 0.044529
vt 0.550159 0.269114
vt 0.312121 0.050017
vt 0.506111 0.940555
vt 0.504289 0.953161
vt 0.243700 0.801166
vt 0.151123 0.582407
vt 0.132161 0.297005
vt 0.131908 0.485068
vt 0.556302 0.365473
vt 0.585237 0.400825
vt 0.541849 0.445432
vt 0.476003 0.833434
vt 0.234145 0.691376
vt 0.485795 0.760488
vt 0.614284 0.706709
vt 0.574222 0.766165
vt 0.579152 0.321168
vt 0.645453 0.722298
vt 0.629841 0.466368
vt 0.254526 0.064326
vt 0.427741 0.124702
vt 0.313215 0.153728
vt 0.274456 0.090521
vt 0.366066 0.378315
vt 0.422982 0.179291
vt 0.314270 0.420963
vt 0.201768 0.581575
vt 0.196752 0.218126
vt 0.220461 0.103204
vt 0.453286 0.314817
vt 0.478667 0.235542
vt 0.418939 0.302907
vt 0.284191 0.320166
vt 0.133390 0.299724
vt 0.303304 0.375255
vt 0.331093 0.457170
vt 0.411288 0.499452
vt 0.447913 0.174946
vt 0.614650 0.788498
vt 0.464417 0.527989
vt 0.461197 0.489248
vt 0.318967 0.421113
vn -0.8453 -0.1738 -0.5052
vn -0.8454 -0.1735 -0.5052
vn -0.8459 -0.1720 -0.5048
vn 0.7597 0.1104 0.6409
vn 0.9519 -0.1583 -0.2624
vn -0.3535 0.9259 -0.1334
vn -0.3539 0.9258 -0.1331
vn -0.3532 0.9260 -0.1336
vn 0.4052 0.8888 0.2144
vn -0.6856 -0.1771 0.7061
vn -0.9535 -0.1891 0.2345
vn -0.9561 -0.1792 0.2320
vn -0.9565 -0.1773 0.2315
vn 0.2113 0.3005 -0.9301
vn -0.9696 0.1424 -0.1991
vn -0.3283 0.6227 -0.7103
vn 0.0612 0.8927 -0.4465
vn -0.2805 0.9570 0.0734
vn 0.6265 0.5769 -0.5241
vn 0.6268 0.5771 -0.5235
vn 0.6266 0.5770 -0.5239
vn 0.6569 -0.2148 -0.7227
vn 0.6549 -0.2165 -0.7240
vn 0.6628 -0.2097 -0.7188
vn 0.9741 0.2259 0.0009
vn 0.9759 0.2180 0.0049
vn 0.9761 0.2171 0.0053
vn 0.7598 0.3569 0.5435
vn -0.3048 -0.8597 -0.4099
vn -0.8172 -0.2701 -0.5093
vn -0.8460 -0.1718 -0.5048
vn 0.7406 -0.6657 -0.0910
vn 0.7403 -0.6660 -0.0917
vn 0.7398 -0.6664 -0.0925
vn 0.3939 -0.8782 0.2714
vn 0.3981 -0.8803 0.2581
vn 0.9604 -0.0446 -0.2750
vn -0.3820 0.9143 -0.1347
vn -0.3526 0.9261 -0.1340
vn -0.4603 0.8729 -0.1620
vn 0.2581 0.9374 0.2340
vn 0.3655 0.9192 0.1463
vn -0.4506 0.4826 0.7510
vn -0.7222 0.0319 0.6910
vn -0.5706 -0.2545 0.7808
vn -0.6373 -0.2247 0.7371
vn -0.9532 -0.1906 0.2348
vn -0.5500 0.6251 0.5538
vn -0.6710 0.6338 0.3848
vn -0.6705 0.6344 0.3847
vn -0.6718 0.6329 0.3850
vn -0.6720 0.6325 0.3851
vn -0.5632 0.5903 0.5783
vn -0.7067 0.5999 0.3750
vn 0.1864 0.2455 -0.9513
vn 0.1870 0.2781 -0.9422
vn -0.9695 0.1605 -0.1854
vn -0.9409 -0.0811 -0.3287
vn -0.9786 0.1065 -0.1764
vn -0.9734 0.1347 -0.1855
vn -0.7494 -0.6537 0.1050
vn -0.6856 -0.7185 0.1174
vn -0.6964 -0.7099 0.1053
vn -0.3473 0.5893 -0.7294
vn -0.3985 0.5382 -0.7427
vn -0.3012 0.5379 -0.7874
vn -0.0863 0.8979 -0.4316
vn -0.2203 0.9728 0.0717
vn 0.6409 0.5889 -0.4924
vn 0.6591 0.5861 -0.4712
vn 0.6271 0.5774 -0.5229
vn 0.6323 0.5612 -0.5341
vn 0.6984 -0.0978 -0.7090
vn 0.6642 -0.2085 -0.7179
vn 0.9737 0.2278 0.0000
vn 0.9831 0.1643 0.0802
vn 0.7306 0.4063 0.5487
vn -0.1403 -0.8549 -0.4994
vn -0.1550 -0.8486 -0.5058
vn 0.4246 -0.8649 0.2677
vn -0.7322 -0.6698 0.1239
vn 0.7359 -0.6699 -0.0988
vn 0.7369 -0.6702 -0.0886
vn -0.1620 -0.8207 -0.5479
vn 0.7369 -0.6702 -0.0879
vn -0.0534 -0.9916 -0.1178
usemtl Asteroid
s 1
f 25/1/1 24/2/2 27/3/3
f 4/4/4 3/5/4 31/6/4
f 34/7/5 12/8/5 11/9/5
f 20/10/6 18/11/7 21/12/8
f 5/13/9 7/14/9 16/15/9
f 1/16/10 2/17/10 3/5/10
f 13/18/11 14/19/12 17/20/13
f 10/21/14 25/1/14 27/3/14
f 26/22/15 24/2/15 13/18/15
f 30/23/16 22/24/16 26/22/16
f 28/25/17 30/23/17 29/26/17
f 28/25/18 16/15/18 6/27/18
f 8/28/19 11/9/20 6/27/21
f 32/29/22 10/21/23 9/30/24
f 11/9/25 7/14/26 34/7/27
f 4/4/28 31/6/28 7/14/28
f 43/31/29 23/32/29 41/33/29
f 23/32/30 24/2/30 25/1/30
f 24/2/2 26/22/31 27/3/3
f 36/34/32 32/29/32 33/35/33 38/36/34
f 35/37/35 31/6/35 2/17/35 40/38/35
f 31/6/36 3/5/36 2/17/36
f 34/7/37 33/35/37 12/8/37
f 28/25/38 29/26/38 21/12/38
f 21/12/8 29/26/39 20/10/6
f 19/39/40 20/10/40 29/26/40
f 8/28/41 6/27/41 7/14/41
f 6/27/42 16/15/42 7/14/42
f 4/4/43 5/13/43 15/40/43
f 3/5/44 4/4/44 1/16/44
f 4/4/45 15/40/45 1/16/45
f 15/40/46 14/19/46 1/16/46
f 13/18/11 1/16/47 14/19/12
f 18/11/48 17/20/48 21/12/48
f 17/20/49 14/19/50 15/40/51
f 21/12/52 17/20/49 15/40/51
f 15/40/53 5/13/53 16/15/53
f 21/12/54 15/40/54 16/15/54
f 27/3/55 22/24/55 9/30/55
f 9/30/56 10/21/56 27/3/56
f 13/18/57 17/20/57 26/22/57
f 17/20/58 18/11/58 20/10/58
f 26/22/59 20/10/59 19/39/59
f 17/20/60 20/10/60 26/22/60
f 42/41/61 2/17/61 1/16/61 39/42/61
f 1/16/62 13/18/62 23/32/62
f 13/18/63 24/2/63 23/32/63
f 22/24/64 27/3/64 26/22/64
f 26/22/65 19/39/65 29/26/65
f 29/26/66 30/23/66 26/22/66
f 28/25/67 6/27/67 30/23/67
f 21/12/68 16/15/68 28/25/68
f 12/8/69 9/30/69 30/23/69
f 9/30/70 22/24/70 30/23/70
f 30/23/71 6/27/21 11/9/20
f 12/8/72 30/23/72 11/9/72
f 9/30/73 12/8/73 33/35/73
f 33/35/74 32/29/22 9/30/24
f 8/28/75 7/14/26 11/9/25
f 7/14/76 31/6/76 34/7/76
f 7/14/77 5/13/77 4/4/77
f 25/1/78 10/21/78 23/32/78
f 10/21/79 32/29/79 23/32/79
f 2/17/80 42/41/80 40/38/80
f 23/32/81 43/31/81 39/42/81 1/16/81
f 33/35/33 34/7/82 37/43/83 38/36/34
f 32/29/84 36/34/84 41/33/84 23/32/84
f 31/6/85 35/37/85 37/43/83 34/7/82
f 40/38/86 42/41/86 39/42/86 43/31/86 41/33/86 36/34/86 38/36/86 37/43/86 35/37/86
